<svg xmlns="http://www.w3.org/2000/svg" xmlns:xlink="http://www.w3.org/1999/xlink" width="164.834" height="39.89" viewBox="0 0 164.834 39.89"><defs><clipPath id="a"><path d="M42.5,8.179c-6.715.948-11.657,5.25-16.151,10.52-5.71,6.7-9.712,15.036-17.622,22.231a96.9,96.9,0,0,0,31.637-.551c-5.882-7.842-2.512-14.465,1.357-20.987,1.174-1.979,2.654-3.739,3.741-5.769.7-1.307,2.171-2.678,1.113-4.449a2.344,2.344,0,0,0-2.211-1.209,13.68,13.68,0,0,0-1.865.214" transform="translate(-8.729 -7.965)" fill="#fff"/></clipPath><clipPath id="b"><path d="M10.856,6.524C.081,14.165-2.448,27.386,2.271,38.9-4.187,13.4,22.861-4.643,50.074,3.487A54.865,54.865,0,0,0,31.745,0,35.256,35.256,0,0,0,10.856,6.524" transform="translate(0)" fill="#fff"/></clipPath><clipPath id="c"><rect width="164.834" height="39.89" fill="#fff"/></clipPath></defs><g transform="translate(5.927 5.408)"><g clip-path="url(#a)"><rect width="38.907" height="34.451" transform="translate(0 0)" fill="#fff"/></g></g><g transform="translate(0)"><g clip-path="url(#b)"><path d="M-6.681-31.794-21.894,25.06,38.512,45.645,53.725-11.21Z" transform="translate(7.028 10.206)" fill="#fff"/></g></g><g transform="translate(0 0)"><g clip-path="url(#c)"><text transform="translate(48.619 32.977)" fill="#fff" font-size="27" font-family="Raleway-Medium, Raleway" font-weight="500"><tspan x="0" y="0">A</tspan><tspan y="0" letter-spacing="-0.011em">r</tspan><tspan y="0">cshark</tspan></text></g></g></svg>